<?xml version="1.0" encoding="UTF-8" standalone="no"?>
<!-- Created with Inkscape (http://www.inkscape.org/) -->

<svg
   inkscape:version="1.1.2 (0a00cf5339, 2022-02-04)"
   sodipodi:docname="logo.svg"
   viewBox="0 0 53.869999 53.869999"
   height="53.869999"
   width="53.869999"
   xml:space="preserve"
   id="svg25"
   version="1.1"
   xmlns:inkscape="http://www.inkscape.org/namespaces/inkscape"
   xmlns:sodipodi="http://sodipodi.sourceforge.net/DTD/sodipodi-0.dtd"
   xmlns="http://www.w3.org/2000/svg"
   xmlns:svg="http://www.w3.org/2000/svg"><defs
     id="defs29" /><sodipodi:namedview
     id="namedview27"
     pagecolor="#ffffff"
     bordercolor="#666666"
     borderopacity="1.0"
     inkscape:pageshadow="2"
     inkscape:pageopacity="0.0"
     inkscape:pagecheckerboard="0"
     showgrid="false"
     inkscape:zoom="6.2280772"
     inkscape:cx="28.419686"
     inkscape:cy="18.304205"
     inkscape:window-width="1846"
     inkscape:window-height="905"
     inkscape:window-x="0"
     inkscape:window-y="0"
     inkscape:window-maximized="1"
     inkscape:current-layer="g6975"
     objecttolerance="10000" /><g
     id="g31"
     inkscape:groupmode="layer"
     inkscape:label="ink_ext_XXXXXX"
     transform="matrix(1.3333333,0,0,-1.3333333,0,428)"><g
       id="g6467"
       transform="translate(-45.083473,1.0518343)"><g
         id="g6975"><g
           id="g131792"><g
             id="g72922"
             inkscape:export-filename="/home/osboxes/tailwind-nextjs-starter-blog/data/text18714.png"
             inkscape:export-xdpi="96"
             inkscape:export-ydpi="96"><path
               style="fill:#506ab0;fill-opacity:1;stroke-width:0.160563"
               d="m 7.5464704,26.513936 v -9.815363 h 2.6492926 2.649293 v 3.692953 3.692954 h 3.612672 3.612672 v -3.692954 -3.692953 h 2.569011 2.569011 v 9.794355 9.794355 H 22.639411 20.0704 V 32.11264 27.937997 h -3.591664 -3.591663 l -0.09952,0.602112 c -0.05474,0.331161 -0.100318,2.173624 -0.10129,4.094361 l -0.0018,3.49225 -1.966899,0.0018 c -1.081795,9.63e-4 -2.23785,0.04655 -2.5690116,0.10129 l -0.602112,0.09952 z"
               id="path2713"
               transform="matrix(0.75000002,0,0,-0.75000002,45.083473,319.94817)" /><path
               style="fill:#506ab0;fill-opacity:1;stroke-width:0.160563"
               d="m 40.577941,38.372697 -1.569899,-1.739672 -1.079394,-0.10606 c -4.974055,-0.488741 -7.890363,-2.642679 -9.128951,-6.742492 -0.398157,-1.317924 -0.401861,-5.16123 -0.0064,-6.645245 0.817368,-3.067308 3.327054,-5.576244 6.388176,-6.386267 1.261947,-0.333932 4.755038,-0.374783 6.163556,-0.07208 3.201441,0.688015 5.759089,3.123485 6.613722,6.297785 0.401958,1.492971 0.398505,5.480963 -0.0059,6.805808 -0.651509,2.134394 -2.276626,4.321872 -3.936413,5.298586 -0.45021,0.264929 -0.818176,0.553943 -0.817702,0.642253 4.82e-4,0.08831 0.7923,1.063731 1.759613,2.167603 l 1.758751,2.00704 -1.160687,0.09944 c -0.638382,0.05469 -1.666465,0.102482 -2.284633,0.106206 l -1.123942,0.0068 -1.569899,-1.739672 z m -0.196296,-5.92285 c 1.885856,-0.875003 2.936442,-3.384737 2.762441,-6.599172 -0.141268,-2.609733 -0.922162,-4.28622 -2.428465,-5.213625 -0.727224,-0.447739 -0.90576,-0.486369 -2.247885,-0.486369 -1.090698,0 -1.606725,0.07403 -2.048703,0.293905 -0.88368,0.439616 -1.731196,1.342342 -2.201297,2.344698 -0.400379,0.853695 -0.419183,1.01623 -0.419183,3.623362 0,2.657966 0.01193,2.75538 0.45455,3.713203 0.471317,1.019915 1.282548,1.926626 2.114462,2.363329 0.716611,0.376177 3.170371,0.352135 4.01408,-0.03933 z"
               id="path2752"
               transform="matrix(0.75000002,0,0,-0.75000002,45.083473,319.94817)" /><path
               style="fill:#506ab0;fill-opacity:1;stroke-width:0.160563"
               d="M 23.201382,53.524592 C 19.682466,52.798443 17.82735,52.185209 15.217162,50.885294 8.0069113,47.29448 2.912438,40.755657 1.0290037,32.674611 0.60982288,30.876077 0.57935229,30.507432 0.57114045,27.135181 0.56136181,23.119518 0.68294123,22.261879 1.7191779,19.036766 3.0532913,14.884562 5.0877423,11.601272 8.3445069,8.3445069 11.824058,4.8649561 15.275166,2.8309464 20.234377,1.3368705 l 2.003626,-0.60363845 4.237765,-0.0553752 c 4.728823,-0.0617918 5.462971,0.0260516 8.549756,1.02300925 2.210962,0.7140879 5.753046,2.5038283 7.675483,3.8782621 5.003037,3.5768852 8.546901,8.8671838 10.316141,15.3999908 0.514862,1.901095 0.514873,1.901227 0.522776,5.995498 l 0.0079,4.094362 -0.537975,2.087322 c -0.616226,2.390932 -1.514572,4.762282 -2.463481,6.502809 -4.09778,7.51631 -12.009574,13.016072 -19.855671,13.802363 -1.585338,0.158874 -6.811831,0.202921 -7.489318,0.06312 z M 46.882725,39.940096 c -9.63e-4,-0.110387 -0.769642,-1.101066 -1.708201,-2.201506 -1.512793,-1.773716 -1.673878,-2.019733 -1.419276,-2.167604 1.358062,-0.788749 3.050675,-2.651481 3.837762,-4.223486 0.789691,-1.577206 0.949163,-2.581619 0.847244,-5.336262 -0.140141,-3.787721 -0.62531,-5.110643 -2.6132,-7.125477 -1.140127,-1.155579 -2.464619,-1.911248 -4.016883,-2.291768 -1.392501,-0.341357 -5.348913,-0.383851 -6.64683,-0.07139 -2.637092,0.634852 -5.253646,2.916431 -6.253402,5.452834 -0.451477,1.145403 -0.704809,3.480183 -0.603405,5.561153 0.26159,5.368281 3.535586,8.599769 9.285338,9.164785 l 1.184141,0.116363 1.160351,1.233726 c 0.638192,0.678548 1.311781,1.426238 1.496864,1.661531 l 0.336511,0.427806 h 2.557358 c 1.939765,0 2.55694,-0.04847 2.555628,-0.200705 z m -34.880626,-3.596292 0.842957,-0.101251 v -1.39706 c 0,-0.768383 0.04736,-2.597945 0.105248,-4.065691 l 0.105248,-2.668633 1.219398,-0.05784 1.219399,-0.05784 -1.364787,0.0114 -1.364788,0.0114 -0.0429,4.054221 -0.0429,4.05422 h -2.476497 c -1.4777998,0 -2.5165145,0.06475 -2.57573,0.160564 -0.1123328,0.181757 2.998167,0.22194 4.375347,0.05652 z"
               id="path2791"
               transform="matrix(0.75000002,0,0,-0.75000002,45.083473,319.94817)" /><path
               style="fill:#506ab0;fill-opacity:1;stroke-width:0.160563"
               d="M 23.201382,53.524592 C 19.682466,52.798443 17.82735,52.185209 15.217162,50.885294 8.0069113,47.29448 2.912438,40.755657 1.0290037,32.674611 0.60982288,30.876077 0.57935229,30.507432 0.57114045,27.135181 0.56136181,23.119518 0.68294123,22.261879 1.7191779,19.036766 3.0532913,14.884562 5.0877423,11.601272 8.3445069,8.3445069 11.824058,4.8649561 15.275166,2.8309464 20.234377,1.3368705 l 2.003626,-0.60363845 4.237765,-0.0553752 c 4.728823,-0.0617918 5.462971,0.0260516 8.549756,1.02300925 2.210962,0.7140879 5.753046,2.5038283 7.675483,3.8782621 5.003037,3.5768852 8.546901,8.8671838 10.316141,15.3999908 0.514862,1.901095 0.514873,1.901227 0.522776,5.995498 l 0.0079,4.094362 -0.537975,2.087322 c -0.616226,2.390932 -1.514572,4.762282 -2.463481,6.502809 -4.09778,7.51631 -12.009574,13.016072 -19.855671,13.802363 -1.585338,0.158874 -6.811831,0.202921 -7.489318,0.06312 z M 46.882725,39.940096 c -9.63e-4,-0.110387 -0.769642,-1.101066 -1.708201,-2.201506 -1.512793,-1.773716 -1.673878,-2.019733 -1.419276,-2.167604 1.358062,-0.788749 3.050675,-2.651481 3.837762,-4.223486 0.789691,-1.577206 0.949163,-2.581619 0.847244,-5.336262 -0.140141,-3.787721 -0.62531,-5.110643 -2.6132,-7.125477 -1.140127,-1.155579 -2.464619,-1.911248 -4.016883,-2.291768 -1.392501,-0.341357 -5.348913,-0.383851 -6.64683,-0.07139 -2.637092,0.634852 -5.253646,2.916431 -6.253402,5.452834 -0.451477,1.145403 -0.704809,3.480183 -0.603405,5.561153 0.26159,5.368281 3.535586,8.599769 9.285338,9.164785 l 1.184141,0.116363 1.160351,1.233726 c 0.638192,0.678548 1.311781,1.426238 1.496864,1.661531 l 0.336511,0.427806 h 2.557358 c 1.939765,0 2.55694,-0.04847 2.555628,-0.200705 z m -34.880626,-3.596292 0.842957,-0.101251 v -1.39706 c 0,-0.768383 0.04736,-2.597945 0.105248,-4.065691 l 0.105248,-2.668633 1.219398,-0.05427 1.219399,-0.05427 -1.307468,-0.03231 c -1.064181,-0.0263 -1.325603,0.01495 -1.404928,0.221666 -0.0536,0.139687 -0.09746,1.982149 -0.09746,4.094362 v 3.840384 l -2.368307,0.0025 c -1.3025694,0.0014 -2.4766878,0.0725 -2.6091524,0.158105 -0.2776788,0.17945 2.9211704,0.221545 4.2950654,0.05652 z"
               id="path2830"
               transform="matrix(0.75000002,0,0,-0.75000002,45.083473,319.94817)" /><path
               style="fill:#506ab0;fill-opacity:1;stroke-width:0.160563"
               d="M 23.201382,53.524592 C 19.682466,52.798443 17.82735,52.185209 15.217162,50.885294 8.0069113,47.29448 2.912438,40.755657 1.0290037,32.674611 0.60982288,30.876077 0.57935229,30.507432 0.57114045,27.135181 0.56136181,23.119518 0.68294123,22.261879 1.7191779,19.036766 3.0532913,14.884562 5.0877423,11.601272 8.3445069,8.3445069 11.824058,4.8649561 15.275166,2.8309464 20.234377,1.3368705 l 2.003626,-0.60363845 4.237765,-0.0553752 c 4.728823,-0.0617918 5.462971,0.0260516 8.549756,1.02300925 2.210962,0.7140879 5.753046,2.5038283 7.675483,3.8782621 5.003037,3.5768852 8.546901,8.8671838 10.316141,15.3999908 0.514862,1.901095 0.514873,1.901227 0.522776,5.995498 l 0.0079,4.094362 -0.537975,2.087322 c -0.616226,2.390932 -1.514572,4.762282 -2.463481,6.502809 -4.09778,7.51631 -12.009574,13.016072 -19.855671,13.802363 -1.585338,0.158874 -6.811831,0.202921 -7.489318,0.06312 z M 46.882725,39.940096 c -9.63e-4,-0.110387 -0.769642,-1.101066 -1.708201,-2.201506 -1.512793,-1.773716 -1.673878,-2.019733 -1.419276,-2.167604 1.358062,-0.788749 3.050675,-2.651481 3.837762,-4.223486 0.789691,-1.577206 0.949163,-2.581619 0.847244,-5.336262 -0.140141,-3.787721 -0.62531,-5.110643 -2.6132,-7.125477 -1.140127,-1.155579 -2.464619,-1.911248 -4.016883,-2.291768 -1.392501,-0.341357 -5.348913,-0.383851 -6.64683,-0.07139 -2.637092,0.634852 -5.253646,2.916431 -6.253402,5.452834 -0.451477,1.145403 -0.704809,3.480183 -0.603405,5.561153 0.26159,5.368281 3.535586,8.599769 9.285338,9.164785 l 1.184141,0.116363 1.160351,1.233726 c 0.638192,0.678548 1.311781,1.426238 1.496864,1.661531 l 0.336511,0.427806 h 2.557358 c 1.939765,0 2.55694,-0.04847 2.555628,-0.200705 z m -34.880626,-3.596292 0.842957,-0.101251 v -1.39706 c 0,-0.768383 0.04736,-2.597945 0.105248,-4.065691 l 0.105248,-2.668633 1.219398,-0.05427 1.219399,-0.05427 -1.307468,-0.03231 c -1.064181,-0.0263 -1.325603,0.01495 -1.404928,0.221666 -0.0536,0.139687 -0.09746,1.982149 -0.09746,4.094362 v 3.840384 l -2.368307,0.0025 c -1.3025694,0.0014 -2.4766878,0.0725 -2.6091524,0.158105 -0.2776788,0.17945 2.9211704,0.221545 4.2950654,0.05652 z"
               id="path2869"
               transform="matrix(0.75000002,0,0,-0.75000002,45.083473,319.94817)" /><rect
               style="fill:#506ab0;fill-opacity:1;stroke-width:0.75"
               id="rect2930"
               width="29.377974"
               height="17.401037"
               x="50.743324"
               y="-307.42422"
               transform="scale(1,-1)"
               rx="27.704401"
               ry="0" /></g><path
             style="fill:#7094f4;stroke-width:0.160563"
             d="M 23.419873,53.715445 C 8.0521617,51.514569 -2.2939499,36.872122 0.79801121,21.699609 1.8164964,16.701816 4.1885385,12.250986 7.8582085,8.4520587 11.628469,4.5489979 16.33644,1.9637391 21.836595,0.77619441 23.311036,0.4578464 23.975666,0.41259098 27.135181,0.4154085 c 3.128419,0.00279 3.825625,0.0506452 5.201371,0.35701632 7.196206,1.60255598 13.098712,5.56499968 17.026831,11.43037818 3.377188,5.042739 4.989179,11.213798 4.456334,17.05984 -0.582938,6.395619 -3.068818,11.897531 -7.402057,16.382705 -3.97202,4.111291 -8.748583,6.736341 -14.245636,7.828957 -2.241613,0.445553 -6.50469,0.563008 -8.752151,0.24114 z M 46.883499,40.020377 c -4.82e-4,-0.06623 -0.831441,-1.050121 -1.846477,-2.186419 -1.015037,-1.136298 -1.845521,-2.092188 -1.845521,-2.1242 0,-0.03201 0.307077,-0.214559 0.682393,-0.405664 1.066058,-0.542818 2.876182,-2.462937 3.462725,-3.673144 0.826244,-1.704775 1.061975,-2.867251 1.058183,-5.218304 -0.0055,-3.414911 -0.751459,-5.573651 -2.554009,-7.391173 -1.877263,-1.892857 -4.075121,-2.679424 -7.466188,-2.671997 -3.434407,0.0075 -5.321836,0.697095 -7.320441,2.674517 -1.934747,1.91424 -2.669628,3.965043 -2.67641,7.468935 -0.0031,1.581486 0.07096,2.278199 0.349123,3.285908 1.141732,4.136211 4.017295,6.3411 8.847982,6.784346 l 1.367857,0.125509 1.575645,1.726054 1.575647,1.726055 h 2.395222 c 1.317373,0 2.394794,-0.05419 2.394269,-0.120423 z m -34.075873,-7.947878 0.04285,-4.134502 h 3.609961 3.609962 v 4.174643 4.174643 h 2.569011 2.569011 V 26.492928 16.698573 H 22.639411 20.0704 v 3.692953 3.692954 H 16.457728 12.845056 V 20.391526 16.698573 H 10.195763 7.5464704 v 9.798332 9.798332 l 2.6091516,-0.04412 2.609152,-0.04412 z"
             id="path995"
             transform="matrix(0.75000002,0,0,-0.75000002,45.083473,319.94817)" /><path
             style="fill:#506ab0;stroke-width:0.160563;fill-opacity:1"
             d="m 36.89165,32.604311 c -1.25481,-0.404374 -2.184944,-1.398943 -2.78731,-2.980401 -0.252522,-0.662974 -0.304873,-1.22234 -0.300544,-3.211264 0.0047,-2.14735 0.04633,-2.511858 0.384271,-3.362336 0.787795,-1.982616 2.533505,-3.105011 4.574541,-2.941177 2.361693,0.189575 3.866857,1.898914 4.27856,4.858946 0.441509,3.174333 -0.540257,6.179551 -2.368871,7.25119 -0.613045,0.359268 -0.969678,0.443263 -2.042058,0.480948 -0.714613,0.02511 -1.496977,-0.01805 -1.738589,-0.09591 z"
             id="path1034"
             transform="matrix(0.75000002,0,0,-0.75000002,45.083473,319.94817)" /><text
             xml:space="preserve"
             style="font-style:normal;font-weight:600;font-size:30px;line-height:1.25;font-family:FreeSans;fill:#000000;fill-opacity:1;stroke:none;stroke-width:0.75;-inkscape-font-specification:'FreeSans, Semi-Bold';font-stretch:normal;font-variant:normal;font-variant-ligatures:normal;font-variant-caps:normal;font-variant-numeric:normal;font-variant-east-asian:normal"
             x="41.952492"
             y="-289.72214"
             id="text4672"
             transform="scale(1,-1)"><tspan
               sodipodi:role="line"
               id="tspan32034"></tspan></text><text
             xml:space="preserve"
             style="font-weight:600;font-size:20.0000005px;line-height:1.25;font-family:FreeSans;-inkscape-font-specification:'FreeSans, Semi-Bold';stroke-width:0.75"
             x="50.743324"
             y="-300.06271"
             id="text34942"
             transform="scale(1,-1)"><tspan
               sodipodi:role="line"
               id="tspan34940"
               style="stroke-width:0.75;font-size:20.0000005px"
               x="50.743324"
               y="-300.06271" /></text><path
             style="fill:#506ab0;fill-opacity:0.98823529;stroke:#506ab0;stroke-width:0.160563;stroke-opacity:1"
             d="m 35.685171,16.431672 c 0.110387,-0.04454 0.291021,-0.04454 0.401408,0 0.110387,0.04454 0.02007,0.08099 -0.200704,0.08099 -0.220774,0 -0.311091,-0.03644 -0.200704,-0.08099 z"
             id="path102571"
             transform="matrix(0.75000002,0,0,-0.75000002,45.083473,319.94817)" /><path
             style="fill:#506ab0;fill-opacity:0.988235;stroke:#506ab0;stroke-opacity:1"
             id="path109133"
             transform="scale(1,-1)"
             sodipodi:type="arc"
             sodipodi:cx="52.730297"
             sodipodi:cy="-292.73535"
             sodipodi:rx="1.9869696"
             sodipodi:ry="0.0085995002"
             sodipodi:start="0"
             sodipodi:end="6.1385673"
             sodipodi:open="true"
             sodipodi:arc-type="arc"
             d="m 54.717267,-292.73535 a 1.9869696,0.0085995 0 0 1 -1.915148,0.009 1.9869696,0.0085995 0 0 1 -2.053599,-0.008 1.9869696,0.0085995 0 0 1 1.766686,-0.009 1.9869696,0.0085995 0 0 1 2.181319,0.007" /><path
             style="fill:#506ab0;fill-opacity:0.988235;stroke:#506ab0;stroke-opacity:1"
             id="path109135"
             transform="scale(1,-1)"
             sodipodi:type="arc"
             sodipodi:cx="75.984329"
             sodipodi:cy="-307.52432"
             sodipodi:rx="4.1369739"
             sodipodi:ry="0.10009541"
             sodipodi:start="0"
             sodipodi:end="6.1385673"
             sodipodi:open="true"
             sodipodi:arc-type="arc"
             d="m 80.121303,-307.52432 a 4.1369739,0.10009541 0 0 1 -3.987436,0.10003 4.1369739,0.10009541 0 0 1 -4.275701,-0.0928 4.1369739,0.10009541 0 0 1 3.678332,-0.10674 4.1369739,0.10009541 0 0 1 4.541619,0.0851" /><path
             style="fill:#506ab0;fill-opacity:0.988235;stroke:#506ab0;stroke-opacity:1"
             id="path109143"
             transform="scale(1,-1)"
             sodipodi:type="arc"
             sodipodi:cx="67.918571"
             sodipodi:cy="-307.52432"
             sodipodi:rx="3.928781"
             sodipodi:ry="0.10008787"
             sodipodi:start="0"
             sodipodi:end="6.1385673"
             sodipodi:open="true"
             sodipodi:arc-type="arc"
             d="m 71.847353,-307.52432 a 3.928781,0.10008787 0 0 1 -3.786769,0.10002 3.928781,0.10008787 0 0 1 -4.060527,-0.0928 3.928781,0.10008787 0 0 1 3.49322,-0.10673 3.928781,0.10008787 0 0 1 4.313063,0.0851" /><path
             style="fill:#506ab0;fill-opacity:0.988235;stroke:#506ab0;stroke-width:0.160563;stroke-opacity:1"
             d="M 22.799974,53.540407 C 16.803159,52.414687 12.475867,50.148545 8.2658555,45.929092 5.1303081,42.786514 3.1767752,39.696077 1.7800725,35.668755 0.68541692,32.512373 0.49159468,31.212956 0.49522193,27.054899 0.49881586,22.935051 0.66917746,21.790316 1.7669272,18.509738 4.2975471,10.94709 10.683092,4.5264567 18.304205,1.8815893 c 3.586864,-1.24480276 4.046939,-1.31470138 8.670412,-1.31728515 4.675891,-0.002613 5.225406,0.0761146 8.562174,1.22668075 8.809075,3.0374983 15.140445,9.8810751 17.455942,18.8681261 3.10568,12.053961 -2.851855,24.862566 -14.136439,30.393117 -2.451302,1.201378 -4.082123,1.783631 -6.377279,2.27688 -2.045861,0.439673 -7.793998,0.565158 -9.679041,0.211299 z m 24.158977,-13.52003 c -0.0032,-0.06623 -0.820626,-1.054042 -1.816543,-2.195133 l -1.81076,-2.074709 0.973588,-0.665422 c 1.852564,-1.266179 3.360172,-3.448635 3.867043,-5.598036 0.499218,-2.116954 0.215615,-6.237747 -0.551633,-8.015307 -0.471142,-1.091543 -1.687111,-2.572351 -2.74204,-3.339257 l -0.978587,-0.711406 1.618994,-0.08028 c 1.198953,-0.05945 1.658365,-0.142768 1.770744,-0.321127 0.22932,-0.363955 0.189123,-0.481689 -0.164458,-0.481689 -0.235493,0 -0.321126,-0.107043 -0.321126,-0.401408 V 15.735194 H 36.001884 c -9.51705,0 -10.844749,0.02974 -11.159143,0.249949 -0.196269,0.137472 -0.356853,0.354232 -0.356853,0.481689 0,0.190909 -0.396058,0.231741 -2.247885,0.231741 h -2.247885 v 3.692953 3.692954 h -3.53239 -3.53239 V 20.391526 16.698573 H 10.195763 7.4661888 v 9.473228 c 0,8.11556 -0.032966,9.473229 -0.2300248,9.473229 -0.2832852,0 -0.4687577,0.532325 -0.3337168,0.957801 0.1419371,0.447204 0.7720545,0.524498 3.7627548,0.461562 2.088154,-0.04394 2.622998,-0.101495 2.745424,-0.29542 0.229679,-0.363816 0.189507,-0.48169 -0.164162,-0.48169 -0.312892,0 -0.321126,-0.107043 -0.321126,-4.174643 v -4.174643 h 3.53239 3.53239 v 4.174643 4.174643 h 2.649293 2.649293 v -9.473009 -9.473007 l 3.814824,0.03992 3.814826,0.03992 -0.890227,0.656692 c -2.742066,2.02274 -3.799,4.644858 -3.649567,9.054111 0.08765,2.586241 0.481991,3.934768 1.650872,5.645486 1.503539,2.200505 3.805979,3.403737 7.306231,3.818162 l 1.520631,0.180039 1.477817,1.562179 c 0.812799,0.859198 1.481143,1.616369 1.48521,1.682601 0.0041,0.06623 1.163447,0.120423 2.576404,0.120423 1.412956,0 2.566408,-0.05419 2.563226,-0.120423 z"
             id="path109383"
             transform="matrix(0.75000002,0,0,-0.75000002,45.083473,319.94817)" /><path
             style="fill:#506ab0;fill-opacity:0.988235;stroke:#506ab0;stroke-width:0.160563;stroke-opacity:1"
             d="m 24.29116,53.700987 c -0.03076,-0.03076 -0.414985,-0.09222 -0.853837,-0.136582 -0.842452,-0.08516 -1.368208,-0.172259 -1.961995,-0.325034 -0.482465,-0.124135 -1.416797,-0.357592 -1.966899,-0.491462 -0.132465,-0.03224 -0.258908,-0.07317 -0.280986,-0.09096 -0.02208,-0.0178 -0.112394,-0.05042 -0.200704,-0.0725 -0.08831,-0.02208 -0.19669,-0.0582 -0.240845,-0.08028 -0.04415,-0.02208 -0.152535,-0.0582 -0.240844,-0.08028 -0.08831,-0.02208 -0.178627,-0.0547 -0.200704,-0.0725 -0.02208,-0.0178 -0.168993,-0.05691 -0.32648,-0.08693 -0.157485,-0.03002 -0.572943,-0.203962 -0.923238,-0.386546 -0.350295,-0.182585 -0.6369,-0.29946 -0.6369,-0.259724 0,0.07788 -2.129906,-0.99901 -3.050701,-1.542452 C 9.8871695,47.998363 5.0485638,42.91285 3.6075749,39.77623 3.435986,39.402729 3.232695,38.988759 3.155817,38.856294 2.719903,38.105192 2.4242102,37.431858 1.9266163,36.057233 1.6213478,35.213915 1.3361955,34.360719 1.2929445,34.161242 1.2496936,33.961763 1.131544,33.473413 1.0303899,33.076019 0.64677604,31.568954 0.55485078,30.369103 0.56293771,26.974617 c 0.008715,-3.658145 0.0629903,-4.257818 0.57039119,-6.302105 0.049317,-0.198697 0.1160427,-0.469647 0.1482783,-0.602112 0.032236,-0.132465 0.069508,-0.240845 0.082827,-0.240845 0.013319,0 0.053017,-0.15272 0.088219,-0.339379 0.035201,-0.186658 0.1502212,-0.547925 0.2555999,-0.802816 0.1053787,-0.254889 0.2038923,-0.499564 0.2189191,-0.543718 0.015027,-0.04415 0.081823,-0.224789 0.1484361,-0.401408 0.066613,-0.17662 0.1753365,-0.465634 0.2416078,-0.642253 0.17085,-0.455333 1.4154149,-2.987742 1.6562494,-3.370095 2.2356692,-3.549385 5.2638951,-6.7689606 8.2129955,-8.7319648 1.441703,-0.9596384 4.152374,-2.4785618 4.310689,-2.4154934 0.02247,0.00895 0.257621,-0.072811 0.52255,-0.181697 0.264929,-0.1088859 0.69845,-0.2873342 0.963379,-0.3965517 0.654755,-0.2699237 3.098827,-1.01498651 3.692954,-1.12577807 2.305066,-0.42984396 8.386161,-0.42169308 10.838016,0.0145268 0.7964,0.14169087 3.582653,1.03738317 3.765207,1.21039497 0.08389,0.079509 0.26762,0.144562 0.408282,0.144562 0.300529,0 4.042151,1.8213454 4.359864,2.1222935 0.119537,0.1132302 0.414818,0.3077464 0.65618,0.4322583 0.241361,0.124512 0.581544,0.3593356 0.755962,0.5218304 0.174416,0.1624948 0.361949,0.295445 0.41674,0.295445 0.237828,0 2.525627,2.0077227 3.651205,3.2042213 1.664111,1.7689587 2.992849,3.6480497 4.154715,5.8755617 0.533795,1.023386 0.984949,1.946026 1.002564,2.050312 0.01761,0.104286 0.121412,0.352181 0.230659,0.550878 0.109247,0.198697 0.151114,0.361267 0.09304,0.361267 -0.05808,0 -0.03391,0.09032 0.05371,0.200704 0.14322,0.180447 0.489873,1.123199 0.593918,1.615209 0.02223,0.10512 0.08537,0.299507 0.140308,0.431972 0.05494,0.132464 0.134403,0.421478 0.176584,0.642252 0.04218,0.220775 0.117268,0.582042 0.166861,0.802816 0.269899,1.201525 0.315771,1.491451 0.520807,3.291546 0.243328,2.136268 0.07605,5.665086 -0.353918,7.466189 -0.05271,0.220774 -0.127821,0.626023 -0.166924,0.900551 -0.0391,0.274529 -0.181027,0.76224 -0.315385,1.083801 -0.134358,0.321563 -0.210394,0.584659 -0.168972,0.584659 0.07463,0 -0.264257,1.067789 -0.535062,1.685914 -0.07738,0.176619 -0.336491,0.805542 -0.575804,1.397606 -1.716477,4.24658 -5.447518,8.712975 -9.610437,11.504562 -2.21661,1.486425 -5.973394,3.241883 -7.790948,3.640531 -0.189556,0.04158 -0.489426,0.107622 -0.666378,0.146771 -0.176952,0.03915 -0.375649,0.104485 -0.441548,0.145192 -0.117478,0.07257 -1.335556,0.250728 -2.447986,0.358052 -0.868889,0.08383 -6.233129,0.203708 -6.296129,0.140708 z M 42.121079,39.992621 c -0.02944,-0.0815 -0.733615,-0.876287 -1.56484,-1.766195 -1.206966,-1.292176 -1.594981,-1.613614 -1.926758,-1.596151 -0.375023,0.01974 -0.380496,0.02861 -0.05626,0.09118 0.200928,0.03877 1.014489,0.803506 1.846477,1.735662 1.335925,1.496759 1.857358,1.967357 1.701378,1.535508 z m 4.837872,0.01228 c -0.0032,-0.05773 -0.823495,-1.04188 -1.822919,-2.187012 l -1.817134,-2.082055 0.668408,-0.423894 c 1.684122,-1.068037 3.258664,-3.108198 3.945404,-5.112125 0.380535,-1.110411 0.431066,-1.50631 0.441981,-3.462839 0.0068,-1.214999 -0.06412,-2.652062 -0.157556,-3.193473 -0.223615,-1.29575 -0.928885,-2.835545 -1.774122,-3.87339 -0.783362,-0.961865 -2.498413,-2.32929 -2.921447,-2.32929 -0.161612,0 0.138111,0.283461 0.687955,0.650634 1.635352,1.092046 3.040194,2.941591 3.591375,4.728233 0.28182,0.913508 0.425838,3.67796 0.28022,5.378867 -0.127449,1.488665 -0.219126,1.836199 -0.783579,2.970419 -0.801559,1.610666 -1.741464,2.753437 -3.115554,3.78801 -0.873091,0.657364 -1.044562,0.858113 -0.924526,1.082399 0.08105,0.151446 0.831635,1.068401 1.667966,2.03768 0.836328,0.969278 1.487585,1.797646 1.447236,1.840818 -0.04035,0.04317 -0.989376,0.122841 -2.108949,0.177044 l -2.035589,0.09855 2.368308,0.0082 c 1.302569,0.0045 2.365704,-0.03904 2.362522,-0.09676 z M 7.4661888,37.029477 c 0,-0.03334 -0.1264436,-0.159785 -0.2809856,-0.280986 -0.2546623,-0.19972 -0.2603414,-0.19404 -0.060621,0.06062 0.2097548,0.267459 0.3416071,0.352514 0.3416071,0.220364 z m 3.4922492,-0.05844 c -0.596091,-0.03089 -1.571512,-0.03089 -2.1676028,0 -0.5960909,0.03089 -0.1083802,0.05617 1.0838015,0.05617 1.1921823,0 1.6798923,-0.02528 1.0838013,-0.05617 z M 13.56759,36.52968 c 0,-0.112717 -0.13096,-0.239187 -0.291022,-0.281044 -0.269913,-0.07058 -0.294093,-0.371747 -0.333358,-4.152081 -0.02328,-2.241786 -0.07296,-4.106598 -0.110386,-4.144025 -0.03743,-0.03743 -0.06805,1.858709 -0.06805,4.213634 0,4.256982 0.002,4.281686 0.340787,4.281686 0.286993,0 0.308753,0.0386 0.137852,0.24452 -0.16968,0.204453 -0.159747,0.227949 0.06062,0.143385 0.144955,-0.05562 0.263555,-0.193358 0.263555,-0.306075 z m 24.405607,0.07873 c 0,-0.08831 -0.234824,-0.15336 -0.521831,-0.144558 -0.494417,0.01516 -0.500743,0.02276 -0.120422,0.144558 0.566595,0.181456 0.642253,0.181456 0.642253,0 z m -1.364788,-0.160563 c -0.05458,-0.08831 -0.221413,-0.155484 -0.370743,-0.149277 -0.221335,0.0092 -0.212167,0.03679 0.04962,0.149277 0.429653,0.184629 0.435232,0.184629 0.321126,0 z m -0.883097,-0.160563 c 0,-0.08831 -0.126444,-0.159457 -0.280986,-0.158105 -0.24013,0.0021 -0.245967,0.02509 -0.04014,0.158105 0.303017,0.195824 0.321127,0.195824 0.321126,0 z M 20.110123,29.985177 c -0.02743,-1.170104 -0.04988,-0.212746 -0.04988,2.127463 0,2.340208 0.02245,3.297567 0.04988,2.127462 0.02743,-1.170104 0.02743,-3.08482 0,-4.254925 z m 6.263665,-12.604418 c 0.63268,0.05034 0.915715,0.03323 0.681111,-0.04118 -0.220774,-0.07002 -0.744612,-0.134512 -1.164083,-0.143314 l -0.762675,-0.016 0.03884,9.593651 0.03884,9.593652 0.04272,-9.536469 0.04272,-9.536468 z m 8.709271,18.745961 c 0,-0.08831 -0.07652,-0.160563 -0.17004,-0.160563 -0.09352,0 -0.125383,0.07225 -0.07081,0.160563 0.05458,0.08831 0.131097,0.160563 0.17004,0.160563 0.03894,0 0.07081,-0.07225 0.07081,-0.160563 z M 7.3457664,35.742645 C 7.608034,35.543556 7.6259076,34.899463 7.614076,26.073819 7.607106,20.873279 7.57494,16.690545 7.5426,16.778854 c -0.03234,0.08831 -0.081951,4.339847 -0.1102468,9.44786 -0.049582,8.950583 -0.062656,9.295492 -0.3606205,9.51337 -0.1700456,0.12434 -0.2411738,0.223775 -0.1580629,0.220967 0.083111,-0.0028 0.2775544,-0.101091 0.4320966,-0.218406 z m 26.7739136,0.06295 c 0,-0.08831 -0.07652,-0.160563 -0.17004,-0.160563 -0.09352,0 -0.125384,0.07225 -0.07081,0.160563 0.05458,0.08831 0.131097,0.160564 0.17004,0.160564 0.03894,0 0.07081,-0.07225 0.07081,-0.160564 z m -1.854505,-0.935309 c -0.08389,-0.07287 -0.556124,-0.488329 -1.049399,-0.923239 l -0.896865,-0.790744 0.941278,0.923238 c 0.517702,0.507781 0.989933,0.923238 1.049399,0.923238 0.05947,0 0.03948,-0.05962 -0.04441,-0.132493 z m -2.696922,-3.199193 c -0.210207,-0.419471 -0.473039,-1.051689 -0.584071,-1.404928 -0.111035,-0.353239 -0.276039,-0.714506 -0.366679,-0.802816 -0.112079,-0.109199 -0.126594,-0.05783 -0.04537,0.160563 0.06569,0.17662 0.143045,0.429507 0.171911,0.561971 0.02887,0.132465 0.06704,0.258909 0.08484,0.280986 0.01779,0.02208 0.04479,0.09433 0.06,0.160563 0.05656,0.246394 0.903996,1.806336 0.981283,1.806336 0.04415,0 -0.0917,-0.343204 -0.301911,-0.762675 z M 28.45577,25.81341 c -0.03574,-0.288588 -0.06571,-0.09118 -0.06661,0.438673 -9.63e-4,0.529859 0.02834,0.765976 0.06497,0.524706 0.03664,-0.24127 0.03737,-0.674791 0.0016,-0.963379 z m 0.191017,-1.889493 c -0.0058,-0.158807 -0.05583,-0.13146 -0.146819,0.08028 -0.189677,0.441403 -0.189677,0.694913 0,0.401408 0.08561,-0.132464 0.151674,-0.349225 0.146819,-0.481689 z M 12.884678,18.504909 c -0.02797,-1.03764 -0.05085,-0.188662 -0.05085,1.886617 0,2.07528 0.02288,2.924258 0.05085,1.886618 0.02797,-1.03764 0.02797,-2.735596 0,-3.773235 z m 7.225344,0 c -0.02797,-1.03764 -0.05085,-0.188662 -0.05085,1.886617 0,2.07528 0.02288,2.924258 0.05085,1.886618 0.02797,-1.03764 0.02797,-2.735596 0,-3.773235 z m 9.192762,3.171123 c 0,-0.08831 -0.03186,-0.160563 -0.07081,-0.160563 -0.03894,0 -0.115461,0.07225 -0.17004,0.160563 -0.05458,0.08831 -0.02272,0.160563 0.07081,0.160563 0.09352,0 0.17004,-0.07225 0.17004,-0.160563 z m 1.842384,-2.560103 c 0.894509,-0.947861 0.987104,-1.086605 0.447279,-0.670197 -0.77395,0.597002 -1.434775,1.357696 -1.85511,2.135463 -0.266853,0.493772 -0.267153,0.503417 -0.0041,0.131458 0.156138,-0.220775 0.791502,-0.9393 1.411922,-1.596724 z m 2.474261,-1.905278 c -0.144064,-0.05978 -1.050252,0.392764 -1.168007,0.583297 -0.04564,0.07385 0.225538,-0.01594 0.602626,-0.199563 0.377087,-0.183612 0.631509,-0.356293 0.565381,-0.383734 z m -5.239884,0.1844 c -0.110387,-0.04454 -0.29102,-0.04454 -0.401408,0 -0.110387,0.04454 -0.02007,0.08099 0.200704,0.08099 0.220775,0 0.311092,-0.03644 0.200704,-0.08099 z m 1.685914,-0.0087 c -0.242852,-0.03679 -0.640246,-0.03679 -0.883098,0 -0.242851,0.03679 -0.04415,0.06689 0.441549,0.06689 0.485704,0 0.684401,-0.0301 0.441549,-0.06689 z m 15.53449,-0.04048 c 0.61113,-0.130334 0.597515,-0.135729 -0.280986,-0.111341 -0.507781,0.0141 -0.923238,0.0799 -0.923238,0.146225 0,0.151636 0.381454,0.140586 1.204224,-0.03488 z m 1.846476,-0.666993 c 0,-0.0775 -0.144507,-0.140903 -0.321126,-0.140903 -0.235493,0 -0.321126,-0.107043 -0.321126,-0.401408 v -0.401408 l -10.155623,0.03891 -10.155622,0.03891 10.075341,0.04257 10.07534,0.04258 v 0.400201 c 0,0.300855 0.0846,0.400202 0.340786,0.400202 0.301466,0 0.315361,0.03242 0.120423,0.280985 -0.19972,0.254663 -0.194041,0.260342 0.06062,0.06062 0.154542,-0.121202 0.280985,-0.283772 0.280985,-0.361268 z m -23.402086,-0.08668 c -0.110387,-0.04454 -0.291021,-0.04454 -0.401408,0 -0.110387,0.04454 -0.02007,0.08099 0.200704,0.08099 0.220774,0 0.311091,-0.03644 0.200704,-0.08099 z m 0.648635,-0.214789 c 0.04619,-0.176619 0.05716,-0.321126 0.02437,-0.321126 -0.03278,0 -0.136938,0.144507 -0.231461,0.321126 -0.09495,0.17741 -0.105856,0.321127 -0.02438,0.321127 0.08112,0 0.185276,-0.144507 0.231463,-0.321127 z"
             id="path109422"
             transform="matrix(0.75000002,0,0,-0.75000002,45.083473,319.94817)" /><path
             style="fill:#506ab0;fill-opacity:0.988235;stroke:#506ab0;stroke-width:0.160563;stroke-opacity:1"
             d="M 23.843635,53.704233 C 23.71117,53.67828 23.060889,53.56997 22.398566,53.463544 19.369901,52.97688 15.194408,51.318251 12.544897,49.549376 9.8727922,47.765418 6.7417037,44.63545 4.7685327,41.775796 3.2480784,39.572249 1.6698274,35.960783 0.96118619,33.063555 0.29333692,30.333102 0.38272506,23.257526 1.1192477,20.552089 2.43175,15.730933 4.801387,11.677521 8.37091,8.14767 11.119495,5.4296329 14.161791,3.4387618 17.589716,2.1149063 20.634354,0.93907551 22.05195,0.65462551 25.427458,0.54221219 31.371766,0.34425101 34.531972,0.98108098 39.177421,3.31304 c 3.789254,1.9021608 7.713961,5.3378984 9.971774,8.729417 6.928186,10.407011 6.094242,23.467112 -2.093314,32.782617 -2.300986,2.61798 -5.078208,4.711427 -8.36015,6.301812 -3.478733,1.685746 -5.455268,2.25649 -8.661481,2.501086 -1.911553,0.14583 -5.603411,0.191309 -6.190615,0.07626 z M 46.695055,39.76155 c -0.08853,-0.152829 -1.790072,-2.136812 -3.235838,-3.772948 l -0.374538,-0.423853 0.321093,0.481689 c 0.1766,0.264929 0.938921,1.203486 1.694045,2.085679 1.218845,1.423949 1.337483,1.617109 1.056963,1.72088 -0.460224,0.170248 -0.386843,0.242585 0.164065,0.16173 0.301328,-0.04422 0.440647,-0.138484 0.37421,-0.253177 z m -4.885623,-0.0623 c -0.461626,-0.59729 -2.151854,-2.3838 -2.542526,-2.687361 -0.225836,-0.175478 0.273484,0.420613 1.109599,1.324647 1.402105,1.515999 1.965462,2.051752 1.432927,1.362714 z M 13.286605,36.339559 c -0.340134,-0.237266 -0.363287,-0.375316 -0.395794,-2.359885 l -0.03453,-2.107879 -0.05211,1.926758 c -0.05894,2.17909 0.003,2.594854 0.402262,2.699198 0.453537,0.118532 0.459632,0.106506 0.08017,-0.158192 z M 7.4153085,35.293798 c -0.051256,-0.128086 -0.089303,-0.09004 -0.097007,0.09701 -0.00697,0.169259 0.030977,0.264092 0.084331,0.210739 0.053354,-0.05336 0.059058,-0.191841 0.012676,-0.307747 z m 37.0925085,-0.4284 c 1.627583,-1.28653 2.962079,-3.192684 3.481964,-4.973529 0.547968,-1.877041 0.465607,-5.789705 -0.161112,-7.653866 -0.566533,-1.685141 -2.435285,-3.94489 -3.918971,-4.738934 -0.534556,-0.286087 -0.350702,0.07366 0.205041,0.401197 1.361528,0.802444 2.842494,2.609013 3.494218,4.262451 0.460214,1.167573 0.686223,3.903516 0.49252,5.962178 -0.124856,1.326946 -0.253281,1.822658 -0.734977,2.836972 -0.769374,1.620083 -1.690074,2.787533 -2.951397,3.74238 -0.566856,0.429121 -0.954107,0.78022 -0.860558,0.78022 0.09355,0 0.522523,-0.278582 0.953272,-0.619069 z M 7.5860031,29.262643 c -0.028387,-0.94933 -0.051613,-0.172605 -0.051613,1.726054 0,1.89866 0.023226,2.675385 0.051613,1.726055 0.028387,-0.94933 0.028387,-2.502779 0,-3.452109 z M 7.572527,26.934477 c -0.044542,-0.110388 -0.080986,-0.02007 -0.080986,0.200704 0,0.220774 0.036443,0.311091 0.080986,0.200704 0.044542,-0.110388 0.044542,-0.291021 0,-0.401408 z m 23.035244,-7.305626 c 0.19972,-0.254663 0.194041,-0.260342 -0.06062,-0.06062 -0.267459,0.209755 -0.352514,0.341608 -0.220364,0.341608 0.03334,0 0.159785,-0.126444 0.280986,-0.280986 z"
             id="path109461"
             transform="matrix(0.75000002,0,0,-0.75000002,45.083473,319.94817)" /><text
             xml:space="preserve"
             style="font-weight:600;font-size:20px;line-height:1.25;font-family:FreeSans;-inkscape-font-specification:'FreeSans, Semi-Bold';stroke-width:0.75"
             x="50.225685"
             y="-293.04431"
             id="text125958"
             transform="scale(1,-1)"><tspan
               sodipodi:role="line"
               id="tspan125956"
               style="fill:#ffffff;fill-opacity:1;stroke-width:0.75"
               x="50.225685"
               y="-293.04431">HQ</tspan></text></g></g></g></g></svg>
