<?xml version="1.0" encoding="UTF-8" standalone="no"?>
<!-- Created with Inkscape (http://www.inkscape.org/) -->

<svg
   inkscape:version="1.1.2 (0a00cf5339, 2022-02-04)"
   sodipodi:docname="logo.svg"
   viewBox="0 0 53.869999 53.869999"
   height="53.869999"
   width="53.869999"
   xml:space="preserve"
   id="svg25"
   version="1.1"
   xmlns:inkscape="http://www.inkscape.org/namespaces/inkscape"
   xmlns:sodipodi="http://sodipodi.sourceforge.net/DTD/sodipodi-0.dtd"
   xmlns="http://www.w3.org/2000/svg"
   xmlns:svg="http://www.w3.org/2000/svg"><defs
     id="defs29" /><sodipodi:namedview
     id="namedview27"
     pagecolor="#ffffff"
     bordercolor="#666666"
     borderopacity="1.0"
     inkscape:pageshadow="2"
     inkscape:pageopacity="0.0"
     inkscape:pagecheckerboard="0"
     showgrid="false"
     inkscape:zoom="6.2280772"
     inkscape:cx="36.207001"
     inkscape:cy="18.223923"
     inkscape:window-width="1846"
     inkscape:window-height="880"
     inkscape:window-x="0"
     inkscape:window-y="0"
     inkscape:window-maximized="1"
     inkscape:current-layer="g6975"
     objecttolerance="10000" /><g
     id="g31"
     inkscape:groupmode="layer"
     inkscape:label="ink_ext_XXXXXX"
     transform="matrix(1.3333333,0,0,-1.3333333,0,428)"><g
       id="g6467"
       transform="translate(-45.083473,1.0518343)"><g
         id="g6975"><g
           id="g72922"
           inkscape:export-filename="/home/osboxes/tailwind-nextjs-starter-blog/data/text18714.png"
           inkscape:export-xdpi="96"
           inkscape:export-ydpi="96"><circle
             style="fill:#0c3c4c;fill-opacity:1;fill-rule:evenodd;stroke-width:0.75"
             id="path416"
             cx="65.393471"
             cy="-299.61118"
             r="20.201248"
             transform="scale(1,-1)" /></g><g
           aria-label="HQ"
           transform="scale(1,-1)"
           id="text18714"
           style="font-size:20px;letter-spacing:-0.36px;fill:#dfd9da;stroke-width:0.75"><path
             d="m 50.84029,-307.41742 h 3.759766 v 5.55664 h 5.546875 v -5.55664 h 3.759765 v 14.58008 h -3.759765 v -6.18164 h -5.546875 v 6.18164 H 50.84029 Z"
             style="-inkscape-font-specification:'DejaVu Sans Bold'"
             id="path7055" /><path
             d="m 74.279118,-292.57367 h -0.292969 q -3.603516,0 -5.605469,-1.99219 -2.001953,-1.99218 -2.001953,-5.54687 0,-3.54492 1.992187,-5.55664 2.001954,-2.01172 5.507813,-2.01172 3.544922,0 5.517578,1.99219 1.982422,1.99218 1.982422,5.57617 0,2.46094 -1.054688,4.23828 -1.044921,1.77734 -3.017578,2.67578 l 2.939453,3.28125 H 76.66193 Z m -0.400391,-12.38281 q -1.71875,0 -2.666016,1.26953 -0.947265,1.26953 -0.947265,3.57422 0,2.34375 0.927734,3.59375 0.927734,1.24023 2.685547,1.24023 1.728516,0 2.675781,-1.26953 0.947266,-1.26953 0.947266,-3.56445 0,-2.30469 -0.947266,-3.57422 -0.947265,-1.26953 -2.675781,-1.26953 z"
             style="-inkscape-font-specification:'DejaVu Sans Bold'"
             id="path7057" /></g></g></g></g></svg>
